<svg width="24" height="24" viewBox="0 0 24 24" fill="none" xmlns="http://www.w3.org/2000/svg">
<path d="M10.999 2.99072C8.78993 2.99072 6.99903 4.78172 6.99903 6.99072H5.99902C3.78992 6.99072 1.99902 8.78172 1.99902 10.9907V16.9907C1.99902 19.1997 3.78992 20.9907 5.99902 20.9907H17.999C20.2081 20.9907 21.999 19.1997 21.999 16.9907V10.9907C21.999 8.78172 20.2081 6.99072 17.999 6.99072H16.999C16.999 4.78172 15.2081 2.99072 12.999 2.99072H10.999ZM10.999 4.99072H12.999C14.1036 4.99072 14.999 5.88572 14.999 6.99072H8.99903C8.99903 5.88572 9.89443 4.99072 10.999 4.99072ZM5.99902 8.99072H17.999C19.1036 8.99072 19.999 9.88572 19.999 10.9907V11.2717L14.6552 13.0527C13.2202 13.5317 10.7778 13.5317 9.34283 13.0527L3.99902 11.2717V10.9907C3.99902 9.88572 4.89442 8.99072 5.99902 8.99072ZM3.99902 13.3657L8.71783 14.9597C10.5633 15.5747 13.4347 15.5747 15.2802 14.9597L19.999 13.3657V16.9907C19.999 18.0957 19.1036 18.9907 17.999 18.9907H5.99902C4.89442 18.9907 3.99902 18.0957 3.99902 16.9907V13.3657Z" fill="#2A343D"/>
</svg>
